<svg xmlns="http://www.w3.org/2000/svg" width="191" height="64" viewBox="0 0 191 64">
  <defs>
    <style>
      .cls-1 {
        fill: #2bd0ff;
      }

      .cls-1, .cls-2 {
        fill-rule: evenodd;
      }

      .cls-2 {
        fill: #fff;
      }
    </style>
  </defs>
  <path id="Forma_2" data-name="Forma 2" class="cls-1" d="M26.45,44.481c-0.063-.1-0.122-0.214-0.194-0.315-0.32-.45-0.645-0.9-0.966-1.346a2.035,2.035,0,0,1-.166-0.27,0.135,0.135,0,0,1,.027-0.112,0.259,0.259,0,0,1,.1-0.067,13.177,13.177,0,0,0,2.015-1.085,0.192,0.192,0,0,1,.277.051c0.027,0.033.054,0.066,0.079,0.1q0.058,0.076.114,0.154,1.145,1.571,2.29,3.142c0.087,0.119.165,0.245,0.248,0.369a0.689,0.689,0,0,1-.113.166c-0.135.1-.276,0.2-0.418,0.29a16.149,16.149,0,0,1-6.006,2.339,15.478,15.478,0,0,1-3.676.2,17.09,17.09,0,0,1-3.323-.537c-0.742-.2-0.692-0.2-0.974.473-0.476,1.136-.933,2.281-1.333,3.447-0.128.373-.165,0.461-0.59,0.272-0.737-.327-1.479-0.64-2.216-0.968a13.929,13.929,0,0,1-1.794-.962,20.747,20.747,0,0,1-7.863-8.9A21.018,21.018,0,0,1,.207,34.956a21.236,21.236,0,0,1-.143-4.58,21.519,21.519,0,0,1,1.818-7.129,16.242,16.242,0,0,1,1.109-2.078c0.169-.27.339-0.54,0.506-0.811a0.428,0.428,0,0,0,.049-0.366c-0.056-.182-0.112-0.365-0.153-0.551a2.661,2.661,0,1,1,3.38,2.06,3.038,3.038,0,0,1-.561.1c-0.189.017-.381,0-0.591,0-0.09.114-.191,0.222-0.271,0.344a17.676,17.676,0,0,0-2.6,6.529,19.151,19.151,0,0,0-.347,3.613A18.371,18.371,0,0,0,6.336,43.444,18.641,18.641,0,0,0,12.571,48.6a0.632,0.632,0,0,0,.177.067,0.13,0.13,0,0,0,.11-0.038,2.426,2.426,0,0,0,.184-0.33q0.737-1.66,1.47-3.322c0.086-.194.177-0.386,0.267-0.579A0.192,0.192,0,0,1,15,44.332a12.842,12.842,0,0,0,1.4.6,14.179,14.179,0,0,0,3.034.679,13.675,13.675,0,0,0,6.438-.82A1.146,1.146,0,0,0,26.45,44.481Zm3.48-23.029c-0.143-.1-0.3-0.213-0.449-0.327a15.887,15.887,0,0,0-2.592-1.611,12.693,12.693,0,0,0-4-1.219,13.076,13.076,0,0,0-2.54-.092,17.39,17.39,0,0,0-3.566.622c-0.081.023-.164,0.042-0.246,0.06a0.222,0.222,0,0,1-.207-0.117c-0.009-.019-0.019-0.038-0.027-0.058q-0.323-.866-0.645-1.732a0.418,0.418,0,0,1-.038-0.185,0.212,0.212,0,0,1,.086-0.155c0.4-.135.8-0.274,1.212-0.382a15.2,15.2,0,0,1,4.282-.523,16.45,16.45,0,0,1,8.052,2.291c0.164,0.1.33,0.191,0.5,0.284a0.418,0.418,0,0,0,.085.021,1.266,1.266,0,0,0,.175-0.151c0.418-.5.875-0.977,1.264-1.525a1.953,1.953,0,0,0-.2-0.181,18.063,18.063,0,0,0-5.865-2.547A18.859,18.859,0,0,0,12.97,15.232c-0.269.125-.538,0.253-0.8,0.387a1.3,1.3,0,0,0-.2.165c0.083,0.166.152,0.32,0.234,0.466q0.86,1.528,1.724,3.053c0.084,0.148.17,0.294,0.252,0.443a0.193,0.193,0,0,1-.073.275q-0.417.293-.839,0.578a12.946,12.946,0,0,0-2.1,1.749,13.489,13.489,0,0,0-3.345,5.719,12.811,12.811,0,0,0-.34,1.491c-0.03.189-.073,0.375-0.113,0.563a0.18,0.18,0,0,1-.187.135c-0.148,0-.3-0.005-0.445-0.02q-0.7-.07-1.392-0.152A0.707,0.707,0,0,1,5.1,30.017a0.306,0.306,0,0,1-.111-0.141,0.216,0.216,0,0,1,0-.125c0.133-.645.253-1.294,0.406-1.934a15.255,15.255,0,0,1,3.224-6.3,17.091,17.091,0,0,1,1.975-1.987c0.446-.384.454-0.384,0.156-0.89Q9.829,17.076,8.907,15.51c-0.3-.513-0.3-0.523.187-0.853a20.861,20.861,0,0,1,7.441-3.186,20.176,20.176,0,0,1,5.058-.457,20.917,20.917,0,0,1,11.883,4.178c0.357,0.266.694,0.56,1.037,0.844a0.175,0.175,0,0,1,.014.277c-0.067.082-.136,0.163-0.206,0.243L32.6,18.522q-1.156,1.318-2.313,2.634A0.785,0.785,0,0,1,29.93,21.453ZM4.941,33.093c0.191-.057.349-0.113,0.512-0.15,1.116-.256,2.234-0.506,3.35-0.762,0.268-.061.533-0.133,0.82-0.205a1.9,1.9,0,0,1,.061.255c0.038,0.4.065,0.806,0.107,1.207,0.027,0.253.076,0.5,0.112,0.756a0.2,0.2,0,0,1-.126.2q-0.368.1-.738,0.192c-0.391.1-.783,0.192-1.173,0.291a0.511,0.511,0,0,0-.169.084,0.193,0.193,0,0,0-.064.1,0.267,0.267,0,0,0,.005.126,14.022,14.022,0,0,0,2.067,4.563,1.927,1.927,0,0,0,.158.2,0.246,0.246,0,0,0,.228.086,2.751,2.751,0,0,1,.886.015,2.713,2.713,0,0,1,2.142,2.1,2.67,2.67,0,0,1-1.857,3.083,2.637,2.637,0,0,1-3.412-2.372A2.915,2.915,0,0,1,7.983,41.8a0.367,0.367,0,0,0-.061-0.361C7.87,41.37,7.824,41.3,7.774,41.23A15.533,15.533,0,0,1,5.322,35.8a14.194,14.194,0,0,1-.38-2.262C4.932,33.415,4.941,33.288,4.941,33.093Zm22.1,16.412c0.061-.224.1-0.41,0.161-0.591a2.5,2.5,0,0,1,1.722-1.731,2.627,2.627,0,0,1,3.429,2.393,2.665,2.665,0,0,1-1.994,2.692,2.576,2.576,0,0,1-1.737-.161,1.476,1.476,0,0,1-.28-0.149,0.635,0.635,0,0,0-.654-0.086,19.975,19.975,0,0,1-3.073.793,19.2,19.2,0,0,1-5.379.243c-0.274-.027-0.55-0.04-0.823-0.07q-0.442-.049-0.881-0.122a0.182,0.182,0,0,1-.113-0.127,1.118,1.118,0,0,1,.013-0.316c0.091-.544.187-1.088,0.284-1.631a0.444,0.444,0,0,1,.064-0.177,0.351,0.351,0,0,1,.144-0.108,0.259,0.259,0,0,1,.125.007,20.432,20.432,0,0,0,4,.151,16.892,16.892,0,0,0,4.608-.863C26.775,49.613,26.892,49.563,27.043,49.505Z"/>
  <path id="Forma_3" data-name="Forma 3" class="cls-2" d="M178.321,21.146a0.945,0.945,0,0,1,.07.513c0,0.893,0,1.786,0,2.679,0,0.7,0,1.4,0,2.1a1.58,1.58,0,0,0,.038.314,0.116,0.116,0,0,0,.1.048,3.422,3.422,0,0,0,.347-0.155,8.042,8.042,0,0,1,2.095-.733,8.449,8.449,0,0,1,2.53-.136,8.336,8.336,0,0,1,7.355,6.817,8.318,8.318,0,0,1-4.069,8.724,8.318,8.318,0,0,1-7.934.177c-0.132-.068-0.261-0.143-0.4-0.2a0.346,0.346,0,0,0-.185-0.017,1.779,1.779,0,0,0-.243.073q-1.153.362-2.306,0.724c-0.142.044-.286,0.078-0.43,0.114a0.166,0.166,0,0,1-.143-0.1c-0.008-.062-0.021-0.125-0.023-0.188,0-.17,0-0.34,0-0.51q0-10.173,0-20.346c0-.234,0-0.468.012-0.7a0.179,0.179,0,0,1,.229-0.154,1.9,1.9,0,0,1,.186.042q1.242,0.4,2.482.8C178.139,21.063,178.235,21.11,178.321,21.146Zm0.072,12.84c0,0.829,0,1.659,0,2.488a0.9,0.9,0,0,0,.2.586,5.047,5.047,0,0,0,9.018-3.973,5.044,5.044,0,0,0-9.045-1.994,0.822,0.822,0,0,0-.172.533C178.4,32.412,178.393,33.2,178.393,33.986ZM65.465,41.15c-0.871.275-1.7,0.537-2.529,0.8-0.182.057-.366,0.106-0.549,0.158A0.125,0.125,0,0,1,62.258,42c-0.007-.233-0.017-0.467-0.017-0.7q0-7.4,0-14.793,0-2.805,0-5.611c0-.149,0-0.3,0-0.446,0-.326.018-0.427,0.4-0.3,0.866,0.285,1.735.56,2.6,0.837a0.288,0.288,0,0,1,.221.276c0.01,0.191.01,0.382,0.01,0.574q0,2.136,0,4.272c0,0.169.016,0.338,0.026,0.508a0.14,0.14,0,0,0,.146.086c0.154-.07.308-0.138,0.459-0.213a7.743,7.743,0,0,1,2.482-.764,8.184,8.184,0,0,1,6.13,1.561,8.327,8.327,0,0,1,.4,13.072,7.882,7.882,0,0,1-4.242,1.889,8.252,8.252,0,0,1-4.826-.793c-0.095-.047-0.187-0.1-0.282-0.148S65.587,41.21,65.465,41.15Zm0.015-7.185h0q0,0.542,0,1.085c0,0.425.009,0.851,0,1.276a0.935,0.935,0,0,0,.22.647c0.041,0.049.077,0.1,0.118,0.151a5.047,5.047,0,1,0,3.114-8.145A5.147,5.147,0,0,0,65.7,30.956a1,1,0,0,0-.218.648C65.484,32.391,65.48,33.178,65.48,33.965Zm35.8,5.715c-0.06.07-.123,0.155-0.2,0.229a8.291,8.291,0,0,1-13.115-1.8,7.84,7.84,0,0,1-1.075-4.145A8.229,8.229,0,0,1,90.711,27a7.77,7.77,0,0,1,3.12-1.208,8.066,8.066,0,0,1,4.136.356,8.373,8.373,0,0,1,5.524,8.618c-0.028.337-.1,0.672-0.161,1.006a0.264,0.264,0,0,1-.269.223C102.848,36,102.636,36,102.424,36H91.415c-0.212,0-.423.011-0.635,0.019a0.136,0.136,0,0,0-.095.192,4.488,4.488,0,0,0,.938,1.353,5.009,5.009,0,0,0,6.818.286c0.13-.109.251-0.229,0.377-0.342a0.178,0.178,0,0,1,.231-0.016c0.049,0.041.1,0.081,0.145,0.124q0.93,0.87,1.86,1.742A0.548,0.548,0,0,1,101.276,39.68Zm-6.115-7.016h0.381q1.905,0,3.811,0c0.168,0,.337-0.018.5-0.03a0.154,0.154,0,0,0,.107-0.137,1.434,1.434,0,0,0-.05-0.248,5.012,5.012,0,0,0-9.426.057,1.819,1.819,0,0,0-.052.182,0.137,0.137,0,0,0,.092.145c0.168,0.013.336,0.03,0.5,0.031Q93.1,32.666,95.161,32.663ZM25.866,38.184a0.265,0.265,0,0,1,.087.017,1.994,1.994,0,0,1,.237.2A20.352,20.352,0,0,1,28.1,40.7a0.492,0.492,0,0,1-.2.241,10.316,10.316,0,0,1-3.616,1.954,11.075,11.075,0,0,1-3.7.52A11.285,11.285,0,0,1,10.025,35.1a11.123,11.123,0,0,1-.359-3.917,11.282,11.282,0,0,1,8.244-9.954,11.255,11.255,0,0,1,10.075,2.114,1.784,1.784,0,0,1,.186.174,0.152,0.152,0,0,1,.018.176,0.776,0.776,0,0,1-.106.158q-0.931,1.09-1.866,2.178a1,1,0,0,1-.157.12,1.028,1.028,0,0,1-.164-0.081c-0.12-.088-0.232-0.186-0.351-0.275a8.064,8.064,0,0,0-3.786-1.545,7.92,7.92,0,1,0,3.611,14.3C25.543,38.425,25.711,38.3,25.866,38.184ZM129.9,31.79V22.479c0-.17,0-0.34,0-0.51,0-.317.022-0.432,0.41-0.307,0.807,0.261,1.617.513,2.425,0.771a1.585,1.585,0,0,1,.294.116,0.229,0.229,0,0,1,.109.144,4.538,4.538,0,0,1,.023.509c0,1.148,0,2.3,0,3.444a3.633,3.633,0,0,0,.035.442,0.114,0.114,0,0,0,.09.062A2.978,2.978,0,0,0,133.634,27a7.694,7.694,0,0,1,1.61-.584,6.92,6.92,0,0,1,8.353,5.533,7.619,7.619,0,0,1,.111,1.333c0.01,2.764.007,5.527,0,8.291,0,0.521-.019.537-0.535,0.539-0.742,0-1.485,0-2.228,0-0.084,0-.169,0-0.254-0.006a0.232,0.232,0,0,1-.251-0.228q-0.009-.287-0.009-0.574V35.246c0-.68,0-1.361,0-2.041a3.773,3.773,0,0,0-.214-1.25,3.64,3.64,0,0,0-7,.387,3.178,3.178,0,0,0-.062.569c-0.011.191,0,.383,0,0.574q0,3.954,0,7.908c0,0.77.034,0.733-.724,0.729-0.7,0-1.4,0-2.1-.008a1.569,1.569,0,0,1-.313-0.039,0.148,0.148,0,0,1-.087-0.085A0.589,0.589,0,0,1,129.9,41.8c0-.191,0-0.383,0-0.574Q129.9,36.51,129.9,31.79ZM43.872,41.217c-0.113-.249-0.208-0.463-0.307-0.674Q40.378,33.771,37.192,27c-0.1-.21-0.181-0.429-0.262-0.646a0.13,0.13,0,0,1,.059-0.1,0.234,0.234,0,0,1,.123-0.024q1.368,0,2.736,0a1,1,0,0,1,.176.029,1.49,1.49,0,0,1,.292.5q1.221,2.593,2.437,5.189,1.242,2.654,2.48,5.31a2.233,2.233,0,0,0,.125.22,0.063,0.063,0,0,0,.049.029,0.229,0.229,0,0,0,.108-0.042,0.327,0.327,0,0,0,.062-0.109c0.061-.136.12-0.272,0.179-0.409q2.215-5.115,4.431-10.229c0.05-.116.105-0.232,0.166-0.343a0.248,0.248,0,0,1,.2-0.138c0.021,0,.042-0.005.063-0.005q1.4,0,2.8,0a0.154,0.154,0,0,1,.131.226c-0.023.06-.049,0.118-0.074,0.176-0.058.137-.114,0.274-0.173,0.411q-4.529,10.464-9.059,20.928c-0.3.7-.174,0.626-0.975,0.635-0.7.008-1.4,0.01-2.1,0.012-0.105,0-.21-0.015-0.315-0.025a0.127,0.127,0,0,1-.088-0.145c0.069-.178.135-0.357,0.21-0.531q1.306-3.009,2.614-6.018C43.678,41.686,43.766,41.47,43.872,41.217Zm108.537-9.976q0-2.2,0-4.4a3.263,3.263,0,0,1,.035-0.441,0.141,0.141,0,0,1,.084-0.086,0.537,0.537,0,0,1,.186-0.034q1.337,0,2.674,0c0.021,0,.042,0,0.063.007a0.232,0.232,0,0,1,.217.194c0.006,0.063.014,0.127,0.015,0.19,0,0.191,0,.383,0,0.574q0,3.763,0,7.525c0,0.276,0,.553.025,0.828a3.636,3.636,0,0,0,7.079.75,4.232,4.232,0,0,0,.2-1.127c0.006-.191,0-0.383,0-0.574q0-3.827,0-7.653c0-.773-0.074-0.74.708-0.735l1.91,0.01c0.085,0,.17,0,0.255,0,0.318,0.009.382,0.067,0.389,0.364,0,0.17,0,.34,0,0.51v3.763c0,1.318,0,2.636,0,3.954a8.6,8.6,0,0,1-.191,1.9,6.915,6.915,0,0,1-12.637,2.066,6.692,6.692,0,0,1-1.014-3.378c-0.014-.574,0-1.148-0.006-1.722V31.242Zm-37.073-4.029,0.442-.206a8.38,8.38,0,0,1,3.892-.793,7.077,7.077,0,0,1,1.383.194,0.194,0.194,0,0,1,.145.242q-0.205.736-.415,1.472c-0.117.409-.233,0.817-0.352,1.225a0.253,0.253,0,0,1-.322.224,8.674,8.674,0,0,0-.952-0.05,4.9,4.9,0,0,0-3.62,1.743,0.633,0.633,0,0,0-.182.46c0.007,0.17,0,.34,0,0.51q0,4.53,0,9.059c0,0.212,0,.425-0.012.637a0.208,0.208,0,0,1-.209.2c-0.084.005-.169,0.009-0.254,0.009q-1.177,0-2.356,0c-0.085,0-.169-0.008-0.253-0.014a0.194,0.194,0,0,1-.171-0.16c-0.009-.191-0.02-0.382-0.021-0.572q0-2.935,0-5.869,0-4.306,0-8.613a5.41,5.41,0,0,1,.038-0.568,0.117,0.117,0,0,1,.088-0.074,3.156,3.156,0,0,1,.43.1c0.688,0.215,1.375.436,2.062,0.654Z"/>
</svg>
