<svg xmlns="http://www.w3.org/2000/svg" width="427" height="102" viewBox="0 0 427 102">
  <defs>
    <style>
      .cls-1 {
        fill: #2bd0ff;
      }

      .cls-1, .cls-2 {
        fill-rule: evenodd;
      }

      .cls-2 {
        fill: #696969;
      }
    </style>
  </defs>
  <path id="Forma_2" data-name="Forma 2" class="cls-1" d="M65.055,78.748c-0.135-.22-0.263-0.458-0.419-0.675-0.691-.964-1.392-1.922-2.084-2.885a4.377,4.377,0,0,1-.358-0.579,0.288,0.288,0,0,1,.057-0.24,0.561,0.561,0,0,1,.226-0.145A28.467,28.467,0,0,0,66.822,71.9a0.416,0.416,0,0,1,.6.108c0.058,0.07.116,0.141,0.171,0.214q0.125,0.163.246,0.329,2.471,3.366,4.939,6.732c0.187,0.255.355,0.525,0.534,0.791a1.48,1.48,0,0,1-.244.355c-0.29.221-.595,0.425-0.9,0.621A34.969,34.969,0,0,1,59.21,86.061a33.6,33.6,0,0,1-7.93.437,37.082,37.082,0,0,1-7.169-1.15c-1.6-.425-1.493-0.428-2.1,1.013C40.982,88.8,40,91.247,39.135,93.746c-0.276.8-.355,0.987-1.273,0.582-1.589-.7-3.191-1.371-4.779-2.073a30.087,30.087,0,0,1-3.869-2.061A44.852,44.852,0,0,1,8.447,58.336a45.209,45.209,0,0,1-.308-9.814,45.867,45.867,0,0,1,3.922-15.275,34.722,34.722,0,0,1,2.393-4.454c0.365-.578.732-1.156,1.092-1.738a0.913,0.913,0,0,0,.1-0.784c-0.121-.391-0.242-0.783-0.331-1.181a5.689,5.689,0,0,1,3.67-6.433A5.722,5.722,0,1,1,22.611,29.5a6.584,6.584,0,0,1-1.211.21c-0.408.035-.822,0.008-1.274,0.008-0.195.244-.413,0.475-0.584,0.737a37.733,37.733,0,0,0-5.6,13.991,40.769,40.769,0,0,0-.748,7.742,39.2,39.2,0,0,0,8.475,24.332,40.15,40.15,0,0,0,13.45,11.044,1.381,1.381,0,0,0,.383.144,0.283,0.283,0,0,0,.237-0.082,5.181,5.181,0,0,0,.4-0.707q1.591-3.557,3.171-7.118c0.186-.416.381-0.828,0.577-1.24a0.415,0.415,0,0,1,.482-0.138,27.79,27.79,0,0,0,3.028,1.282,30.768,30.768,0,0,0,6.546,1.455,29.679,29.679,0,0,0,13.886-1.756A2.477,2.477,0,0,0,65.055,78.748ZM72.561,29.4c-0.309-.223-0.643-0.456-0.969-0.7A34.3,34.3,0,0,0,66,25.248a27.509,27.509,0,0,0-8.627-2.613,28.386,28.386,0,0,0-5.48-.2A37.724,37.724,0,0,0,44.2,23.77c-0.175.049-.353,0.091-0.531,0.129a0.479,0.479,0,0,1-.447-0.251c-0.019-.041-0.042-0.081-0.058-0.124q-0.7-1.855-1.391-3.712a0.89,0.89,0,0,1-.082-0.4,0.454,0.454,0,0,1,.186-0.331c0.866-.29,1.732-0.588,2.615-0.818a32.985,32.985,0,0,1,9.236-1.12A35.66,35.66,0,0,1,71.1,22.054c0.354,0.208.712,0.409,1.071,0.609a0.893,0.893,0,0,0,.184.045,2.722,2.722,0,0,0,.378-0.323c0.9-1.082,1.888-2.094,2.727-3.267a4.184,4.184,0,0,0-.435-0.387,39.093,39.093,0,0,0-12.652-5.458,40.931,40.931,0,0,0-26.4,2.8c-0.581.268-1.16,0.542-1.731,0.83a2.8,2.8,0,0,0-.441.355c0.178,0.355.327,0.685,0.5,1q1.854,3.274,3.719,6.542c0.181,0.317.367,0.631,0.543,0.95a0.413,0.413,0,0,1-.157.589q-0.9.627-1.81,1.239a27.882,27.882,0,0,0-4.534,3.748,28.864,28.864,0,0,0-7.215,12.254,27.324,27.324,0,0,0-.733,3.195c-0.064.4-.159,0.8-0.243,1.205a0.388,0.388,0,0,1-.4.289c-0.32-.009-0.641-0.012-0.959-0.044q-1.5-.151-3-0.325A1.532,1.532,0,0,1,19,47.753a0.655,0.655,0,0,1-.24-0.3,0.459,0.459,0,0,1,0-.267c0.288-1.382.545-2.772,0.876-4.144a32.613,32.613,0,0,1,6.955-13.494,36.739,36.739,0,0,1,4.259-4.257c0.963-.823.978-0.822,0.337-1.908q-1.983-3.358-3.97-6.713c-0.649-1.1-.645-1.121.4-1.829A45.154,45.154,0,0,1,43.668,8.012a43.8,43.8,0,0,1,10.909-.978A45.31,45.31,0,0,1,80.21,15.987c0.77,0.57,1.5,1.2,2.237,1.809a0.373,0.373,0,0,1,.03.593c-0.144.177-.293,0.35-0.444,0.521q-1.858,2.106-3.717,4.21-2.494,2.823-4.989,5.645A1.69,1.69,0,0,1,72.561,29.4Zm-53.9,24.944c0.411-.121.753-0.242,1.1-0.322,2.408-.548,4.818-1.085,7.226-1.632,0.578-.131,1.15-0.285,1.769-0.44a4.037,4.037,0,0,1,.131.546c0.083,0.862.14,1.726,0.232,2.587,0.058,0.543.164,1.08,0.242,1.62a0.426,0.426,0,0,1-.271.431q-0.794.213-1.592,0.412c-0.843.21-1.688,0.411-2.53,0.625a1.1,1.1,0,0,0-.364.181,0.414,0.414,0,0,0-.138.224,0.567,0.567,0,0,0,.011.27,29.952,29.952,0,0,0,4.459,9.777,4.137,4.137,0,0,0,.341.428,0.533,0.533,0,0,0,.491.184,5.974,5.974,0,0,1,1.91.033,5.836,5.836,0,0,1,4.621,4.5A5.743,5.743,0,1,1,24.935,75.29,6.207,6.207,0,0,1,25.221,73a0.782,0.782,0,0,0-.132-0.773c-0.113-.144-0.212-0.3-0.32-0.445a33.181,33.181,0,0,1-5.29-11.63,30.241,30.241,0,0,1-.819-4.846C18.638,55.035,18.658,54.763,18.658,54.345ZM66.334,89.514c0.131-.481.221-0.879,0.347-1.266a5.373,5.373,0,0,1,3.714-3.71,5.667,5.667,0,1,1,3.1,10.9,5.59,5.59,0,0,1-3.747-.345,3.179,3.179,0,0,1-.6-0.319,1.377,1.377,0,0,0-1.41-.185,43.29,43.29,0,0,1-6.628,1.7,41.685,41.685,0,0,1-11.6.521c-0.591-.058-1.186-0.085-1.776-0.15q-0.953-.1-1.9-0.262a0.39,0.39,0,0,1-.244-0.272,2.366,2.366,0,0,1,.028-0.677q0.295-1.749.612-3.5a0.948,0.948,0,0,1,.139-0.38,0.757,0.757,0,0,1,.31-0.231,0.562,0.562,0,0,1,.27.015,44.375,44.375,0,0,0,8.621.324,36.648,36.648,0,0,0,9.939-1.85C65.755,89.744,66.008,89.638,66.334,89.514Z"/>
  <path id="Forma_3" data-name="Forma 3" class="cls-2" d="M392.65,28.743a2.025,2.025,0,0,1,.152,1.1q0.007,2.87,0,5.74c0,1.5,0,3.007,0,4.51a3.246,3.246,0,0,0,.081.672,0.249,0.249,0,0,0,.219.1,7.27,7.27,0,0,0,.749-0.333,17.426,17.426,0,0,1,4.519-1.571,18.342,18.342,0,0,1,5.458-.291A17.706,17.706,0,0,1,412.576,42,17.485,17.485,0,0,1,419.7,53.283a17.972,17.972,0,0,1-25.892,19.073c-0.285-.145-0.562-0.306-0.855-0.434a0.753,0.753,0,0,0-.4-0.036,3.914,3.914,0,0,0-.524.156q-2.487.777-4.975,1.551c-0.3.094-.616,0.166-0.926,0.244a0.357,0.357,0,0,1-.309-0.218,3.448,3.448,0,0,1-.048-0.4c-0.008-.364-0.006-0.729-0.006-1.093q0-21.8,0-43.6c0-.5.011-1,0.027-1.5a0.386,0.386,0,0,1,.494-0.33c0.134,0.029.271,0.048,0.4,0.09q2.679,0.853,5.355,1.715C392.259,28.566,392.465,28.667,392.65,28.743Zm0.156,27.514c0,1.777.009,3.555-.006,5.332a1.916,1.916,0,0,0,.433,1.256,10.847,10.847,0,1,0-.059-12.788A1.758,1.758,0,0,0,392.8,51.2C392.811,52.885,392.807,54.571,392.806,56.257ZM149.212,71.609c-1.88.589-3.667,1.151-5.455,1.707-0.392.122-.789,0.228-1.184,0.338a0.27,0.27,0,0,1-.278-0.231c-0.015-.5-0.036-1-0.037-1.5q0-15.849,0-31.7V28.2c0-.319,0-0.638,0-0.956,0.009-.7.04-0.914,0.869-0.643,1.867,0.612,3.742,1.2,5.615,1.793a0.618,0.618,0,0,1,.477.592c0.021,0.409.022,0.819,0.022,1.229q0,4.577,0,9.154c0,0.363.035,0.725,0.058,1.088a0.3,0.3,0,0,0,.315.185c0.331-.149.665-0.3,0.991-0.456a16.786,16.786,0,0,1,5.354-1.637,17.853,17.853,0,0,1,14.089,31.357,17.058,17.058,0,0,1-9.151,4.048,17.9,17.9,0,0,1-10.41-1.7c-0.205-.1-0.4-0.213-0.607-0.317S149.476,71.739,149.212,71.609Zm0.032-15.4h0v2.324c0,0.911.019,1.824,0,2.734a1.992,1.992,0,0,0,.474,1.386c0.087,0.105.165,0.219,0.254,0.323a10.86,10.86,0,1,0,6.717-17.455,11.115,11.115,0,0,0-6.974,4.241,2.141,2.141,0,0,0-.471,1.388C149.254,52.84,149.244,54.526,149.244,56.212ZM226.46,68.459c-0.129.15-.265,0.333-0.426,0.491a17.945,17.945,0,0,1-28.29-3.864,16.709,16.709,0,0,1-2.318-8.882A17.607,17.607,0,0,1,203.67,41.28a16.822,16.822,0,0,1,6.729-2.588,17.506,17.506,0,0,1,8.921.764,17.925,17.925,0,0,1,11.914,18.468c-0.06.723-.216,1.439-0.347,2.155a0.568,0.568,0,0,1-.579.478c-0.458.012-.915,0.016-1.373,0.016q-11.873,0-23.746,0c-0.456,0-.913.023-1.369,0.041a0.292,0.292,0,0,0-.2.411,9.616,9.616,0,0,0,2.024,2.9,10.858,10.858,0,0,0,14.706.614c0.279-.235.54-0.491,0.813-0.734a0.386,0.386,0,0,1,.5-0.035c0.1,0.087.212,0.173,0.312,0.266q2.007,1.864,4.01,3.732A1.179,1.179,0,0,1,226.46,68.459ZM213.269,53.424h0.822q4.11,0,8.22,0c0.363,0,.726-0.038,1.088-0.064a0.329,0.329,0,0,0,.23-0.294,3.11,3.11,0,0,0-.108-0.531,10.835,10.835,0,0,0-20.332.123,3.719,3.719,0,0,0-.112.391,0.292,0.292,0,0,0,.2.31c0.362,0.027.725,0.065,1.088,0.066Q208.816,53.429,213.269,53.424ZM63.795,65.254a0.572,0.572,0,0,1,.188.036,4.311,4.311,0,0,1,.511.439,43.676,43.676,0,0,1,4.125,4.907,1.059,1.059,0,0,1-.428.516,22.3,22.3,0,0,1-7.8,4.187,24.037,24.037,0,0,1-7.983,1.114,24.311,24.311,0,0,1-22.783-17.8,23.685,23.685,0,0,1-.774-8.393,24.218,24.218,0,0,1,17.783-21.33,24.407,24.407,0,0,1,21.732,4.531,3.842,3.842,0,0,1,.4.372,0.323,0.323,0,0,1,.04.377,1.658,1.658,0,0,1-.23.339q-2.009,2.336-4.025,4.666a2.138,2.138,0,0,1-.339.257,2.228,2.228,0,0,1-.354-0.174c-0.258-.188-0.5-0.4-0.756-0.59A17.46,17.46,0,0,0,54.936,35.4,16.977,16.977,0,1,0,62.725,66.03C63.1,65.771,63.459,65.5,63.795,65.254Zm224.4-13.7V31.6c0-.364,0-0.729,0-1.093,0.012-.679.049-0.926,0.885-0.657,1.741,0.559,3.488,1.1,5.23,1.653a3.426,3.426,0,0,1,.635.249,0.491,0.491,0,0,1,.235.309,9.427,9.427,0,0,1,.05,1.09c0,2.46,0,4.92,0,7.38a7.508,7.508,0,0,0,.076.946,0.242,0.242,0,0,0,.194.132,6.456,6.456,0,0,0,.747-0.313,16.663,16.663,0,0,1,3.474-1.252,14.99,14.99,0,0,1,14.727,4.891,14.7,14.7,0,0,1,3.29,6.965,16.438,16.438,0,0,1,.241,2.855C318.01,60.676,318,66.6,318,72.521c0,1.116-.04,1.151-1.153,1.155-1.6,0-3.2,0-4.805,0-0.183,0-.367,0-0.549-0.013a0.5,0.5,0,0,1-.541-0.488c-0.014-.41-0.019-0.82-0.019-1.23q0-6.492,0-12.983c0-1.458,0-2.916,0-4.373a8.093,8.093,0,0,0-.461-2.68,7.867,7.867,0,0,0-15.089.829,6.8,6.8,0,0,0-.134,1.22c-0.023.409-.009,0.82-0.009,1.23q0,8.473,0,16.946c0,1.649.072,1.57-1.563,1.562-1.511-.007-3.021-0.007-4.531-0.018a3.4,3.4,0,0,1-.675-0.083,0.32,0.32,0,0,1-.189-0.182,1.257,1.257,0,0,1-.072-0.4c-0.011-.41-0.01-0.82-0.01-1.23Q288.2,61.666,288.2,51.553Zm-185.564,20.2c-0.244-.534-0.448-0.991-0.662-1.443Q95.1,55.8,88.225,41.285c-0.213-.45-0.39-0.919-0.566-1.385a0.279,0.279,0,0,1,.126-0.213,0.508,0.508,0,0,1,.265-0.052q2.951-.007,5.9-0.006a2.189,2.189,0,0,1,.379.063,3.186,3.186,0,0,1,.63,1.074q2.635,5.557,5.256,11.12,2.68,5.687,5.35,11.378a4.849,4.849,0,0,0,.27.471,0.138,0.138,0,0,0,.106.062,0.5,0.5,0,0,0,.232-0.091,0.706,0.706,0,0,0,.134-0.233c0.131-.291.258-0.583,0.385-0.876q4.779-10.96,9.558-21.919c0.109-.25.228-0.5,0.359-0.735a0.535,0.535,0,0,1,.43-0.3c0.046,0,.091-0.011.137-0.011q3.019,0,6.039,0a0.331,0.331,0,0,1,.283.484c-0.049.128-.106,0.252-0.16,0.378-0.124.294-.246,0.588-0.373,0.88q-9.77,22.424-19.542,44.846c-0.651,1.493-.375,1.341-2.1,1.36-1.51.017-3.02,0.021-4.53,0.025-0.227,0-.454-0.032-0.68-0.054a0.272,0.272,0,0,1-.189-0.311c0.148-.381.29-0.764,0.454-1.139q2.817-6.449,5.639-12.9C102.215,72.758,102.405,72.3,102.634,71.754ZM336.757,50.377q0-4.715,0-9.429A7.309,7.309,0,0,1,336.836,40a0.3,0.3,0,0,1,.182-0.185,1.171,1.171,0,0,1,.4-0.074q2.883,0,5.767,0c0.045,0,.091.01,0.136,0.014a0.5,0.5,0,0,1,.468.417c0.014,0.136.03,0.272,0.032,0.408,0,0.41,0,.82,0,1.23q0,8.063,0,16.126c0,0.592,0,1.185.053,1.774a7.854,7.854,0,0,0,15.27,1.607,8.975,8.975,0,0,0,.423-2.414c0.012-.41.009-0.82,0.009-1.23q0-8.2,0-16.4c0-1.657-.159-1.586,1.528-1.576l4.119,0.022c0.183,0,.367,0,0.55,0,0.686,0.019.823,0.144,0.84,0.78,0.01,0.364.007,0.729,0.007,1.093q0,4.031,0,8.063c0,2.824.006,5.649,0,8.473a18.322,18.322,0,0,1-.414,4.068,14.948,14.948,0,0,1-27.258,4.427,14.25,14.25,0,0,1-2.187-7.24c-0.03-1.229-.012-2.46-0.013-3.69Q336.756,53.042,336.757,50.377Zm-79.969-8.633c0.374-.173.664-0.306,0.954-0.441a18.171,18.171,0,0,1,8.394-1.7,15.368,15.368,0,0,1,2.984.415,0.416,0.416,0,0,1,.313.518q-0.444,1.578-.9,3.154-0.375,1.314-.758,2.625a0.545,0.545,0,0,1-.694.48,18.9,18.9,0,0,0-2.053-.108,10.609,10.609,0,0,0-7.81,3.735,1.35,1.35,0,0,0-.393.986c0.016,0.364,0,.729,0,1.093q0,9.706,0,19.412c0,0.455-.012.91-0.028,1.365a0.448,0.448,0,0,1-.449.421c-0.183.011-.366,0.019-0.549,0.019q-2.541,0-5.082,0c-0.182,0-.365-0.017-0.547-0.031a0.416,0.416,0,0,1-.367-0.343c-0.021-.409-0.045-0.818-0.045-1.227q0-6.288,0-12.577,0-9.228,0-18.455a12.119,12.119,0,0,1,.082-1.218,0.252,0.252,0,0,1,.19-0.158,6.872,6.872,0,0,1,.928.2c1.485,0.461,2.966.933,4.448,1.4C255.849,41.455,256.286,41.588,256.788,41.744Z"/>
</svg>
